<svg width="45" height="45" fill="none" xmlns="http://www.w3.org/2000/svg"><path d="M11.25 2.625A1.126 1.126 0 0112.375 1.5h20.25a1.126 1.126 0 011.125 1.125V6.75h1.5V2.625A2.628 2.628 0 0032.625 0h-20.25A2.628 2.628 0 009.75 2.625V6.75h1.5V2.625zM33.75 39h-22.5v-2.25h-1.5v5.625A2.628 2.628 0 0012.375 45h20.25a2.628 2.628 0 002.625-2.625V36.75h-1.5V39zm-1.125 4.5h-20.25a1.126 1.126 0 01-1.125-1.125V40.5h22.5v1.875a1.126 1.126 0 01-1.125 1.125z" fill="#fff"/><path d="M19.5 3.75h6v1.5h-6v-1.5zm24 29.813a.188.188 0 01-.188.187H1.688a.188.188 0 01-.188-.188V14.25H0v19.313a1.69 1.69 0 001.688 1.687h41.624A1.69 1.69 0 0045 33.562V27.75h-1.5v5.813zM43.313 8.25H1.687A1.69 1.69 0 000 9.938v2.812h1.5V9.937a.187.187 0 01.188-.187h41.624a.188.188 0 01.188.188V26.25H45V9.937a1.69 1.69 0 00-1.688-1.687z" fill="#fff"/><path d="M27.75 27.75h1.5v3h-1.5v-3zm-3 0h1.5v3h-1.5v-3zm6 0h3v3h-3v-3zm4.5 0h1.5v3h-1.5v-3zm3 0h3v3h-3v-3zm-13.5-7.5h10.5v1.5h-10.5v-1.5zm12 0h4.5v1.5h-4.5v-1.5zm-6 3h10.5v1.5h-10.5v-1.5zm-6 0h4.5v1.5h-4.5v-1.5zm0-6h3v1.5h-3v-1.5zm4.5 0h6v1.5h-6v-1.5zm4.5-4.5h1.5v1.5h-1.5v-1.5zm3 0h1.5v1.5h-1.5v-1.5zm3 0h1.5v1.5h-1.5v-1.5zm-15 1.5h6.75v1.5h-6.75v-1.5zm-3.75 18a.75.75 0 00.75-.75V12a.75.75 0 00-.75-.75H4.5a.75.75 0 00-.75.75v19.5a.75.75 0 00.75.75H21zm-15.75-3.3a2.072 2.072 0 011.338-1.932l3.65-1.368.412.55a2.626 2.626 0 004.2 0l.412-.55 3.65 1.369a2.071 2.071 0 011.338 1.93v1.801h-15v-1.8zm8.914-4.336l-.514.686a1.125 1.125 0 01-1.8 0l-.514-.686.455-1.364h1.918l.455 1.364zM15 20.625a1.126 1.126 0 01-1.125 1.125h-2.25a1.126 1.126 0 01-1.125-1.125v-3.75a1.126 1.126 0 011.125-1.125h2.25A1.126 1.126 0 0115 16.875v3.75zm5.25-7.875v13.296a3.528 3.528 0 00-.812-.433l-3.84-1.44-.423-1.268a2.626 2.626 0 001.325-2.28v-3.75a2.628 2.628 0 00-2.625-2.625h-2.25A2.628 2.628 0 009 16.875v3.75a2.626 2.626 0 001.325 2.28l-.423 1.268-3.84 1.44a3.53 3.53 0 00-.812.433V12.75h15z" fill="#fff"/></svg>