<svg width="45" height="45" fill="none" xmlns="http://www.w3.org/2000/svg"><path d="M40.077 23.007c0-1.03-.09-2.06-.266-3.075l-1.462.256a16.327 16.327 0 01-6.715 16.178l-1.196-1.952a2.213 2.213 0 01-.093-2.16l.337-.674a.738.738 0 01.664-.41h1.046a2.217 2.217 0 002.068-1.399l1.004-2.512a2.2 2.2 0 00.16-.827V24.8a1.476 1.476 0 00-.435-1.05l-.891-.89a1.484 1.484 0 00-1.714-.279l-1.826.914a.742.742 0 01-.664 0l-2.968-1.484a.738.738 0 01-.408-.663v-2.05c0-.82-.665-1.485-1.485-1.485a.742.742 0 01-.742-.742v-.743c0-.233.11-.453.297-.593l2.375-1.781-.89-1.188-2.375 1.781a2.239 2.239 0 00-.891 1.781v.743c0 1.23.997 2.226 2.226 2.226v2.052a2.214 2.214 0 001.231 1.99l2.969 1.485a2.236 2.236 0 001.991 0l1.827-.913.89.89v1.633a.731.731 0 01-.053.276l-1.005 2.512a.738.738 0 01-.689.467h-1.046a2.213 2.213 0 00-1.991 1.23l-.338.675a3.69 3.69 0 00.155 3.599l1.21 1.975a16.27 16.27 0 01-14.927.675l.91-.608a.744.744 0 01.41-.126h1.904a2.211 2.211 0 001.575-.652l2.099-2.1c.418-.416.654-.983.652-1.574v-3.428c0-.402-.11-.797-.315-1.142l-1.586-2.651a2.24 2.24 0 00-1.902-1.07h-2.083a2.23 2.23 0 00-1.855.992l-.82 1.235h-1.83c-.82 0-1.484.664-1.484 1.484v1.418a.741.741 0 01-.34.623l-2.315 1.493a16.23 16.23 0 01-2.521-9.471h1.29a.738.738 0 01.664.41l.869 1.742c.251.502.766.819 1.328.816h.783a1.484 1.484 0 001.43-1.892l-.946-3.303h1.465c.506 0 .996-.172 1.391-.488l2.422-1.938a2.23 2.23 0 00.656-2.615l-1.27-2.969a.742.742 0 01.3-.929l1.869-1.121a2.236 2.236 0 001.08-1.936l-.012-1.086a16.295 16.295 0 017.211.272l.38-1.431a17.812 17.812 0 1013.21 17.21zm-22.284-15.7l.009.756a.74.74 0 01-.36.645l-1.87 1.121a2.236 2.236 0 00-.9 2.788l1.27 2.968a.742.742 0 01-.218.872l-2.422 1.938a.742.742 0 01-.463.159h-1.465a1.484 1.484 0 00-1.43 1.893l.946 3.302h-.783l-.87-1.738a2.213 2.213 0 00-1.99-1.23H6.093a16.367 16.367 0 0111.7-13.474zM9.33 32.952l2.268-1.462a2.218 2.218 0 001.02-1.87v-1.418h1.829c.496 0 .96-.248 1.235-.661l.823-1.235a.742.742 0 01.617-.33h2.083a.74.74 0 01.63.351l1.583 2.647c.07.115.105.246.105.38v3.428a.742.742 0 01-.217.525l-2.099 2.1a.74.74 0 01-.525.217h-1.904c-.44 0-.87.13-1.236.374l-1.583 1.057a16.46 16.46 0 01-4.63-4.103zM1.535 23.73l-1.48.102c.034.503.087 1.011.156 1.51l1.47-.203a21.175 21.175 0 01-.146-1.41zm2.25-10.982l-1.319-.681c-.231.445-.45.91-.65 1.375l1.362.589c.189-.434.393-.865.607-1.283zM1.923 26.536L.47 26.84c.104.495.223.99.363 1.476l1.428-.404c-.127-.453-.24-.915-.338-1.377zm-.018-8.452L.45 17.787c-.1.492-.185.996-.252 1.498l1.471.197c.062-.469.142-.94.236-1.398zm3.352-7.761l-1.215-.855c-.289.412-.569.84-.83 1.273l1.268.77c.245-.405.507-.804.777-1.188zm-2.596 5.029l-1.4-.493c-.168.479-.32.965-.455 1.45l1.431.396c.124-.452.267-.907.424-1.353zm-1.131 5.54l-1.485-.096A23.7 23.7 0 000 22.265v.047l1.484-.047c0-.46.016-.918.046-1.373zm1.162 8.372l-1.397.5c.17.477.359.951.56 1.41l1.36-.593c-.188-.43-.364-.872-.523-1.317zm4.35-21.146l-1.087-1.01c-.343.372-.68.757-.996 1.147l1.153.935c.296-.365.61-.725.93-1.072zM19.37 1.686L19.162.215c-.497.069-1 .157-1.496.26l.305 1.455c.462-.099.933-.18 1.4-.244zm2.827-.202L22.19 0c-.508 0-1.019.02-1.518.056l.105 1.484c.469-.037.941-.056 1.419-.056zm-5.604.784L16.19.84c-.483.136-.97.292-1.447.463l.502 1.397c.444-.16.898-.304 1.348-.432zM9.11 6.179l-.94-1.15c-.39.32-.775.657-1.142 1.002l1.015 1.082a20.94 20.94 0 011.066-.934zm4.819-2.955l-.594-1.36c-.46.202-.92.423-1.368.657l.687 1.315c.417-.219.846-.422 1.275-.612zm-2.51 1.312l-.777-1.266c-.43.264-.856.546-1.266.838l.86 1.21a21.4 21.4 0 011.183-.782zm19.139 36.788l.594 1.36c.463-.2.922-.42 1.37-.653l-.683-1.317c-.419.217-.85.422-1.28.61zm6.897-4.88l1.085 1.014c.345-.37.681-.754 1-1.145l-1.152-.937c-.297.365-.612.725-.933 1.068zm-2.07 1.936l.938 1.151c.39-.318.774-.654 1.143-.998l-1.013-1.085a21.47 21.47 0 01-1.068.933zm3.862-4.135l1.212.86c.29-.413.572-.84.834-1.272l-1.267-.771a22.46 22.46 0 01-.78 1.183zm-6.176 5.773l.772 1.267a22.79 22.79 0 001.268-.834l-.858-1.212c-.382.273-.782.535-1.182.779zm-5.179 2.256l.4 1.43c.485-.136.973-.291 1.449-.46l-.5-1.399a18.7 18.7 0 01-1.35.429zm15.106-18.591l1.48.1c.034-.504.051-1.014.051-1.518h-1.484c0 .476-.016.95-.047 1.418zm-.383 2.807l1.454.298c.102-.492.188-.997.256-1.498l-1.47-.2c-.064.471-.145.941-.24 1.4zm-.762 2.73l1.398.497c.17-.478.325-.965.46-1.449l-1.43-.399c-.127.45-.27.905-.428 1.351zm-1.131 2.602l1.317.684c.233-.445.452-.91.654-1.373l-1.362-.594c-.187.434-.393.865-.61 1.283zm-36.896.035l-1.316.687c.234.446.485.891.747 1.32l1.27-.773a19.41 19.41 0 01-.701-1.234zm4.412 7.7c.393.32.8.629 1.211.918l.854-1.215a21.766 21.766 0 01-1.132-.856l-.933 1.153zm5.182 3.146c.46.2.937.387 1.416.557l.495-1.4c-.445-.158-.89-.332-1.32-.519l-.592 1.362zm-2.701-1.397c.433.263.88.513 1.326.742l.682-1.32a20.69 20.69 0 01-1.238-.694l-.77 1.272zm-4.707-3.822c.346.371.708.731 1.075 1.073l1.012-1.086c-.343-.32-.681-.656-1.005-1.001l-1.082 1.014zm-.708-3.209l-1.21.858c.29.411.6.816.92 1.208l1.146-.94a20.874 20.874 0 01-.856-1.126zm19.813 8.576l.2 1.47a22.168 22.168 0 001.498-.258l-.3-1.453c-.465.096-.933.177-1.398.241zm-5.857 1.477c.496.067 1.005.118 1.511.149l.1-1.484c-.475-.032-.95-.08-1.41-.142l-.201 1.477zm3.027-1.283v1.484c.508 0 1.019-.017 1.519-.052l-.102-1.484c-.468.035-.94.052-1.417.052z" fill="#fff"/><path d="M16.285 43.717c.488.136.985.256 1.477.357l.297-1.454c-.46-.094-.923-.206-1.377-.333l-.397 1.43zM28.35 6.263l-.426 7.258a3.714 3.714 0 001.08 2.843l1.44 1.438 2.62-6.818 2.65 2.649v3.276c-.002.59.233 1.155.652 1.57l1.287 1.288 1.574-2.623.377.377a2.227 2.227 0 103.149-3.148l-.377-.377L45 12.42l-1.287-1.289a2.208 2.208 0 00-1.574-.652H38.86l-2.644-2.648 6.822-2.624-1.443-1.44a3.704 3.704 0 00-2.841-1.08l-7.259.427L29.11.726a2.281 2.281 0 00-3.149 0c-.87.87-.87 2.28 0 3.15l2.39 2.387zm1.534 8.86a2.233 2.233 0 01-.479-1.515l.35-5.937 2.164 2.164-2.035 5.288zm7.476 2.243a.749.749 0 01-.162-.463v-1.79l.949.948-.787 1.305zm4.778-5.404a.75.75 0 01.464.162l-1.307.79-.948-.947 1.791-.005zM38.842 4.17a2.226 2.226 0 011.514.48l-5.29 2.034L32.9 4.519l5.94-.35zM27.01 1.777a.742.742 0 011.049 0L41.703 15.42c.29.29.29.76 0 1.049a.759.759 0 01-1.05 0L27.01 2.825a.742.742 0 010-1.048z" fill="#fff"/></svg>