<svg width="54" height="54" fill="none" xmlns="http://www.w3.org/2000/svg"><path d="M30.58 34.18a8.994 8.994 0 108.994-8.993 9.004 9.004 0 00-8.994 8.993zm8.994-7.195a7.195 7.195 0 11-7.195 7.195 7.203 7.203 0 017.195-7.195zm-5.139 25.183h10.279v1.799h-10.28v-1.799zM30.58 48.57h17.988v1.8H30.58v-1.8zm-19.787 0h1.8v1.8h-1.8v-1.8zm-5.396 1.8h1.799v1.798H5.397V50.37z" fill="#fff"/><path d="M10.883 43.51a68.116 68.116 0 008.653-26.622l8.365 8.315a.898.898 0 001.434-.236 8.78 8.78 0 00-1.648-10.148l-.735-.736h6.326a.899.899 0 00.854-1.184 8.781 8.781 0 00-8.341-6.01h-1.17l4.492-4.518a.9.9 0 00-.235-1.44A8.783 8.783 0 0018.724 2.58l-.858.859c-.28.281-.54.582-.78.899a8.636 8.636 0 00-.773-.9l-.859-.858A8.779 8.779 0 005.307.932a.9.9 0 00-.235 1.439l4.497 4.517H8.388A8.78 8.78 0 00.047 12.9.9.9 0 00.9 14.084h6.32l-.735.735a8.78 8.78 0 00-1.648 10.148.899.899 0 001.439.236l7.789-7.743a48.746 48.746 0 01-9.403 23.769A33.532 33.532 0 00.99 40.48l-.562-.057-.18 1.79.525.052c.9.129 1.793.31 2.682.516-.18.226-.36.455-.546.677l1.38 1.154A50.636 50.636 0 0016.054 15.48l1.035-1.028.775.77A65.76 65.76 0 016.46 47.151l1.473 1.031a60.676 60.676 0 002.036-3.124 31.9 31.9 0 0110.883 8.526l1.39-1.14a33.588 33.588 0 00-5.972-5.672h37.695v-1.8h-40.36a33.113 33.113 0 00-2.72-1.462zM28.2 22.962l-9.502-9.448a6.938 6.938 0 016.865 1.718l.86.86a6.983 6.983 0 011.777 6.87zm3.706-10.677h-7.447a8.77 8.77 0 00-5.571-.665 6.974 6.974 0 015.685-2.933h1.214a6.983 6.983 0 016.119 3.598zM19.134 4.709l.86-.859a6.988 6.988 0 016.874-1.778l-5.331 5.363a8.771 8.771 0 00-4.246 3.333 6.807 6.807 0 011.846-6.059h-.003zM14.18 3.85l.859.86c.4.408.748.866 1.034 1.362a8.555 8.555 0 00-.687 2.99 8.773 8.773 0 00-2.743-1.627L7.31 2.072a6.985 6.985 0 016.872 1.778h-.002zM8.385 8.687h1.214a6.976 6.976 0 015.691 2.932 8.775 8.775 0 00-5.568.666h-7.45a6.984 6.984 0 016.116-3.598h-.003zM5.978 22.962a6.983 6.983 0 011.779-6.87l.858-.86a6.874 6.874 0 014.877-2.007c.674 0 1.345.096 1.993.286l-9.507 9.451z" fill="#fff"/></svg>