<svg width="285" height="60" fill="none" xmlns="http://www.w3.org/2000/svg"><path d="M85.8 19.8h.82c.053.213.1.473.14.78.053.293.093.613.12.96.04.333.067.667.08 1 .013.333.02.633.02.9-.467.293-1.053.5-1.76.62-.693.12-1.407.18-2.14.18-1.107 0-2.113-.133-3.02-.4-.893-.28-1.66-.713-2.3-1.3-.627-.6-1.113-1.353-1.46-2.26-.347-.92-.52-2.02-.52-3.3 0-1.267.187-2.353.56-3.26.387-.92.9-1.673 1.54-2.26a5.875 5.875 0 012.22-1.28 8.54 8.54 0 012.68-.42c.88 0 1.673.067 2.38.2.72.12 1.307.287 1.76.5 0 .213-.013.487-.04.82-.013.333-.047.687-.1 1.06-.04.36-.093.72-.16 1.08-.053.347-.107.64-.16.88h-.84l-1.1-3.02c-.12-.067-.313-.12-.58-.16-.267-.04-.54-.06-.82-.06a3.56 3.56 0 00-1.54.34c-.48.213-.907.56-1.28 1.04s-.667 1.1-.88 1.86c-.213.747-.32 1.647-.32 2.7 0 1.907.38 3.373 1.14 4.4.76 1.027 1.793 1.54 3.1 1.54.373 0 .687-.027.94-.08.267-.067.447-.153.54-.26l.98-2.8zm11.647 1.3v.76c.013.213.033.44.06.68l1.38.2v.7c-.16.08-.38.16-.66.24-.267.08-.553.16-.86.24-.294.067-.587.12-.88.16a13.2 13.2 0 01-.78.12h-.68a2.934 2.934 0 01-.24-.92c-.027-.307-.047-.68-.06-1.12h-.1c-.067.267-.18.527-.34.78a2.881 2.881 0 01-1.48 1.12 3.29 3.29 0 01-1.12.18 3.61 3.61 0 01-1.22-.2 3.08 3.08 0 01-.98-.56c-.28-.24-.5-.527-.66-.86a2.736 2.736 0 01-.24-1.16c0-.6.113-1.093.34-1.48.226-.387.58-.7 1.06-.94.493-.253 1.12-.44 1.88-.56.773-.12 1.706-.207 2.8-.26.106-1.147.06-1.987-.14-2.52-.2-.533-.633-.8-1.3-.8a3.15 3.15 0 00-1.14.2l-.94 2.4h-.88a6.406 6.406 0 01-.32-.54 32.168 32.168 0 01-.28-.66c-.08-.24-.154-.48-.22-.72a6.96 6.96 0 01-.12-.7c.507-.347 1.16-.62 1.96-.82.8-.2 1.646-.3 2.54-.3.76 0 1.38.087 1.86.26.48.16.853.387 1.12.68.28.28.473.613.58 1 .106.387.16.8.16 1.24 0 .8-.02 1.527-.06 2.18-.027.64-.04 1.3-.04 1.98zm-4.5 1.54c.28 0 .52-.053.72-.16.2-.107.367-.233.5-.38a1.38 1.38 0 00.32-.48c.08-.173.14-.327.18-.46v-2c-.627.013-1.14.053-1.54.12-.4.067-.713.18-.94.34-.227.147-.387.34-.48.58-.08.227-.12.507-.12.84 0 .507.12.9.36 1.18.24.28.573.42 1 .42zM109.8 28h-5.44v-.78a4.522 4.522 0 011.32-.48v-3.16c-.16.2-.407.36-.74.48a2.94 2.94 0 01-1 .18c-.614 0-1.18-.093-1.7-.28a3.58 3.58 0 01-1.32-.9c-.374-.4-.667-.907-.88-1.52-.2-.613-.3-1.34-.3-2.18 0-.96.106-1.787.32-2.48.213-.707.513-1.287.9-1.74a3.598 3.598 0 011.38-1.04 4.704 4.704 0 011.82-.34c.333 0 .64.053.92.16.28.093.48.22.6.38v-3.68l-1.52-.16v-.78c.186-.08.44-.16.76-.24a16.468 16.468 0 012.04-.38c.333-.053.613-.087.84-.1h.68v5.46c.186-.2.446-.36.78-.48.346-.12.706-.18 1.08-.18.6 0 1.146.093 1.64.28.506.187.94.473 1.3.86.36.387.64.873.84 1.46.2.573.3 1.253.3 2.04 0 1.013-.114 1.887-.34 2.62-.214.733-.514 1.34-.9 1.82-.387.48-.847.833-1.38 1.06a4.354 4.354 0 01-1.72.34c-.294 0-.594-.047-.9-.14-.307-.08-.54-.207-.7-.38v3.02c.493.08.933.24 1.32.48V28zm-5.16-5.02c.226 0 .426-.027.6-.08.173-.067.353-.193.54-.38v-7.16a1.917 1.917 0 00-.5-.24 1.863 1.863 0 00-.66-.1c-.267 0-.514.06-.74.18-.227.12-.427.32-.6.6-.174.267-.307.627-.4 1.08-.094.453-.14 1.02-.14 1.7 0 .907.046 1.647.14 2.22.093.56.22 1.007.38 1.34.173.32.373.54.6.66.24.12.5.18.78.18zm4.86-7.96c-.227 0-.427.033-.6.1-.16.053-.334.16-.52.32v7.18c.16.133.326.227.5.28.173.053.393.08.66.08.24 0 .473-.06.7-.18.226-.12.426-.327.6-.62.173-.307.313-.707.42-1.2.106-.493.16-1.12.16-1.88 0-.813-.047-1.487-.14-2.02-.08-.533-.2-.947-.36-1.24-.16-.307-.36-.52-.6-.64s-.514-.18-.82-.18zm14.9 6.08v.76c.013.213.033.44.06.68l1.38.2v.7c-.16.08-.38.16-.66.24-.267.08-.553.16-.86.24-.293.067-.587.12-.88.16a12.72 12.72 0 01-.78.12h-.68a2.956 2.956 0 01-.24-.92c-.027-.307-.047-.68-.06-1.12h-.1a2.68 2.68 0 01-.34.78 2.888 2.888 0 01-1.48 1.12 3.29 3.29 0 01-1.12.18c-.44 0-.847-.067-1.22-.2s-.7-.32-.98-.56c-.28-.24-.5-.527-.66-.86a2.736 2.736 0 01-.24-1.16c0-.6.113-1.093.34-1.48.227-.387.58-.7 1.06-.94.493-.253 1.12-.44 1.88-.56a27.2 27.2 0 012.8-.26c.107-1.147.06-1.987-.14-2.52-.2-.533-.633-.8-1.3-.8a3.16 3.16 0 00-1.14.2l-.94 2.4h-.88a6.433 6.433 0 01-.32-.54 32.734 32.734 0 01-.28-.66c-.08-.24-.153-.48-.22-.72a7.194 7.194 0 01-.12-.7c.507-.347 1.16-.62 1.96-.82.8-.2 1.647-.3 2.54-.3.76 0 1.38.087 1.86.26.48.16.853.387 1.12.68.28.28.473.613.58 1 .107.387.16.8.16 1.24 0 .8-.02 1.527-.06 2.18-.027.64-.04 1.3-.04 1.98zm-4.5 1.54c.28 0 .52-.053.72-.16.2-.107.367-.233.5-.38.147-.147.253-.307.32-.48.08-.173.14-.327.18-.46v-2c-.627.013-1.14.053-1.54.12-.4.067-.713.18-.94.34-.227.147-.387.34-.48.58-.08.227-.12.507-.12.84 0 .507.12.9.36 1.18.24.28.573.42 1 .42zM132.073 28h-5.52v-.78a7.212 7.212 0 011.32-.48V15.42l-1.32-.16v-.78c.213-.093.473-.18.78-.26.32-.08.646-.147.98-.2.333-.067.653-.12.96-.16l.8-.1h.68V16h.02c.226-.64.58-1.173 1.06-1.6.493-.427 1.173-.64 2.04-.64.586 0 1.113.1 1.58.3.48.187.88.487 1.2.9.333.4.586.92.76 1.56.186.627.28 1.38.28 2.26 0 .84-.12 1.6-.36 2.28-.227.68-.56 1.253-1 1.72a4.285 4.285 0 01-1.58 1.08c-.614.253-1.314.38-2.1.38-.454 0-.814-.033-1.08-.1a3.422 3.422 0 01-.82-.3v2.9c.213.027.426.073.64.14.213.08.44.193.68.34V28zm.64-12.64c-.454 0-.86.16-1.22.48-.347.32-.594.813-.74 1.48v5.32c.213.16.44.28.68.36.24.067.553.1.94.1.76 0 1.32-.367 1.68-1.1.36-.733.54-1.807.54-3.22 0-1.093-.14-1.933-.42-2.52-.267-.6-.754-.9-1.46-.9zM138.9 14h5.32v.78c-.146.08-.32.16-.52.24-.186.08-.413.16-.68.24v4.5l-.22 1.86h.1l.78-1.5 3.66-6.12h3.78v.78c-.426.24-.866.4-1.32.48v7.48c.254.067.494.14.72.22.227.067.427.153.6.26V24h-5.32v-.78a4.73 4.73 0 011.2-.48v-4.72l.2-1.58h-.1l-.76 1.5-3.62 6.06h-3.82v-.78a5.23 5.23 0 01.66-.26c.214-.08.434-.153.66-.22v-7.48c-.52-.08-.96-.24-1.32-.48V14zm28.29 10h-6.88v-.76c.267-.107.567-.213.9-.32.347-.12.693-.207 1.04-.26V11.3h-2.32l-1.28 3.42h-.82a15.472 15.472 0 01-.16-1.02c-.053-.413-.1-.84-.14-1.28a47.36 47.36 0 01-.1-1.3 18.69 18.69 0 01-.04-1.12h12.74c0 .32-.013.693-.04 1.12-.027.427-.06.86-.1 1.3-.04.44-.087.867-.14 1.28-.053.4-.107.74-.16 1.02h-.84l-1.28-3.42h-2.32v11.36c.347.067.687.147 1.02.24.347.093.653.207.92.34V24zm13.62-12.66a5.34 5.34 0 01-.84-.24c-.24-.107-.474-.22-.7-.34V10h4.84v.76a3.067 3.067 0 01-.6.32c-.24.093-.514.18-.82.26l-3.82 8.64c-.64 1.467-1.307 2.56-2 3.28-.694.707-1.434.987-2.22.84a2.238 2.238 0 01-.34-.48 31.27 31.27 0 01-.32-.7 10.57 10.57 0 01-.24-.72 3.317 3.317 0 01-.12-.6l.56-.8 2.38.74c.106-.12.206-.267.3-.44a4.77 4.77 0 00.26-.58l-5.32-9.18a6.816 6.816 0 01-.74-.24 7.173 7.173 0 01-.64-.34V10h6.24v.76c-.4.24-.907.433-1.52.58l2.82 5.42.42 1.28h.04l.4-1.32 1.98-5.38zm8.332 11.32a7.1 7.1 0 011.06.24c.36.093.68.207.96.34V24h-6.66v-.76c.253-.147.52-.267.8-.36.293-.093.573-.167.84-.22V11.34a6.055 6.055 0 01-.88-.22 5.002 5.002 0 01-.76-.36V10h2.52c.533 0 1.14-.027 1.82-.08.693-.053 1.326-.08 1.9-.08.706 0 1.393.073 2.06.22.68.133 1.28.367 1.8.7.533.333.96.78 1.28 1.34.32.547.48 1.233.48 2.06 0 .787-.16 1.467-.48 2.04a4.112 4.112 0 01-1.24 1.42c-.52.373-1.12.653-1.8.84a8.47 8.47 0 01-2.1.26h-.8c-.16-.013-.32-.02-.48-.02a3.332 3.332 0 01-.32-.04v4zm1.08-11.52c-.267 0-.48.013-.64.04-.147.013-.294.04-.44.08v6.08c.12.04.3.067.54.08h.58c.36 0 .706-.06 1.04-.18a2.37 2.37 0 00.88-.56c.266-.253.48-.58.64-.98.16-.4.24-.88.24-1.44 0-1.067-.26-1.853-.78-2.36-.52-.507-1.207-.76-2.06-.76zM203.315 24h-6.02v-.76a7.38 7.38 0 01.8-.36c.28-.107.56-.18.84-.22V11.34c-.267-.067-.547-.14-.84-.22a3.632 3.632 0 01-.8-.36V10h6.02v.76c-.2.12-.427.233-.68.34a3.922 3.922 0 01-.82.24v7.6l-.2 1.56.98-1.64 5.04-7.04v-.48c-.627-.147-1.154-.34-1.58-.58V10h6.02v.76a3.242 3.242 0 01-.78.36c-.28.08-.567.153-.86.22v11.32c.306.053.593.133.86.24.28.093.54.207.78.34V24h-6.02v-.76c.186-.093.406-.193.66-.3a4.43 4.43 0 01.84-.28v-7.58l.2-1.58-.9 1.58-5.12 7.14v.44c.306.067.593.153.86.26.266.107.506.213.72.32V24zm19.965-4.2h.82c.054.213.1.473.14.78.054.293.094.613.12.96.04.333.067.667.08 1 .014.333.02.633.02.9-.466.293-1.053.5-1.76.62-.693.12-1.406.18-2.14.18-1.106 0-2.113-.133-3.02-.4-.893-.28-1.66-.713-2.3-1.3-.626-.6-1.113-1.353-1.46-2.26-.346-.92-.52-2.02-.52-3.3 0-1.267.187-2.353.56-3.26.387-.92.9-1.673 1.54-2.26a5.875 5.875 0 012.22-1.28 8.545 8.545 0 012.68-.42c.88 0 1.674.067 2.38.2.72.12 1.307.287 1.76.5 0 .213-.013.487-.04.82-.013.333-.046.687-.1 1.06-.04.36-.093.72-.16 1.08-.053.347-.106.64-.16.88h-.84l-1.1-3.02c-.12-.067-.313-.12-.58-.16-.266-.04-.54-.06-.82-.06-.546 0-1.06.113-1.54.34-.48.213-.906.56-1.28 1.04-.373.48-.666 1.1-.88 1.86-.213.747-.32 1.647-.32 2.7 0 1.907.38 3.373 1.14 4.4.76 1.027 1.794 1.54 3.1 1.54.374 0 .687-.027.94-.08.267-.067.447-.153.54-.26l.98-2.8zm11.8 4.2h-6.88v-.76c.267-.107.567-.213.9-.32.347-.12.694-.207 1.04-.26V11.3h-2.32l-1.28 3.42h-.82a16.175 16.175 0 01-.16-1.02c-.053-.413-.1-.84-.14-1.28a47.36 47.36 0 01-.1-1.3 19.57 19.57 0 01-.04-1.12h12.74c0 .32-.013.693-.04 1.12-.026.427-.06.86-.1 1.3-.04.44-.086.867-.14 1.28-.053.4-.106.74-.16 1.02h-.84l-1.28-3.42h-2.32v11.36c.347.067.687.147 1.02.24.347.093.654.207.92.34V24zm9.66 0h-6.02v-.76a7.35 7.35 0 01.8-.36c.28-.107.56-.18.84-.22V11.34c-.266-.067-.546-.14-.84-.22a3.653 3.653 0 01-.8-.36V10h6.02v.76c-.2.12-.426.233-.68.34a3.887 3.887 0 01-.82.24v7.6l-.2 1.56.98-1.64 5.04-7.04v-.48c-.626-.147-1.153-.34-1.58-.58V10h6.02v.76a3.206 3.206 0 01-.78.36c-.28.08-.566.153-.86.22v11.32c.307.053.594.133.86.24.28.093.54.207.78.34V24h-6.02v-.76c.187-.093.407-.193.66-.3.267-.12.547-.213.84-.28v-7.58l.2-1.58-.9 1.58-5.12 7.14v.44c.307.067.594.153.86.26.267.107.507.213.72.32V24zm17.146-14h5.36v.76a3.824 3.824 0 01-.78.38c-.293.093-.56.16-.8.2l-3.8 4.82c.307.427.667.913 1.08 1.46.414.533.854 1.093 1.32 1.68a536 536 0 001.44 1.76c.494.587.974 1.147 1.44 1.68l.96.58V24h-3.48l-.8-.56c-.32-.4-.66-.84-1.02-1.32a78.4 78.4 0 01-1.04-1.52c-.346-.533-.686-1.067-1.02-1.6a56.184 56.184 0 01-.94-1.56h-.86v5.22c.294.053.56.133.8.24.24.107.447.22.62.34V24h-6.06v-.76c.267-.133.54-.247.82-.34.28-.107.554-.187.82-.24V11.34a4.243 4.243 0 01-.9-.22 4.278 4.278 0 01-.74-.36V10h6.06v.76a4.691 4.691 0 01-.64.32c-.24.107-.5.193-.78.26v5.08l1.18-.28 3.22-4.8a4.58 4.58 0 01-.8-.24 9.945 9.945 0 01-.66-.34V10zM85.327 36.592h-4.113V48h-1.679V36.592h-4.104v-1.389h9.896v1.389zm4.122 9.026l2.215-7.128h1.74l-3.823 10.978c-.592 1.582-1.532 2.373-2.821 2.373l-.308-.026-.606-.115v-1.318l.44.035c.55 0 .978-.111 1.282-.334.31-.223.566-.63.765-1.222l.36-.966-3.392-9.405h1.775l2.373 7.128zm13.447-2.267c0 1.447-.331 2.613-.993 3.498-.662.884-1.558 1.327-2.69 1.327-1.153 0-2.062-.366-2.724-1.099v4.58h-1.626V38.49h1.486l.079 1.055c.662-.82 1.582-1.23 2.76-1.23 1.142 0 2.044.43 2.707 1.291.667.862 1.001 2.06 1.001 3.595v.15zm-1.625-.185c0-1.072-.229-1.919-.686-2.54-.457-.621-1.084-.932-1.88-.932-.985 0-1.724.437-2.216 1.31v4.544c.487.867 1.23 1.3 2.233 1.3.779 0 1.397-.307 1.854-.922.463-.621.695-1.541.695-2.76zM110.842 48c-.094-.188-.17-.522-.229-1.002-.756.785-1.658 1.178-2.707 1.178-.937 0-1.708-.264-2.311-.791-.598-.533-.897-1.207-.897-2.022 0-.99.375-1.758 1.125-2.303.756-.55 1.817-.826 3.182-.826h1.582v-.747c0-.568-.17-1.02-.51-1.353-.34-.34-.841-.51-1.503-.51-.58 0-1.066.146-1.459.44-.392.292-.589.647-.589 1.063h-1.634c0-.475.167-.932.501-1.371.339-.446.796-.797 1.371-1.055a4.64 4.64 0 011.907-.386c1.096 0 1.954.275 2.575.826.621.544.943 1.297.967 2.258v4.377c0 .873.111 1.568.334 2.083V48h-1.705zm-2.698-1.24c.509 0 .993-.131 1.45-.395.457-.263.788-.606.993-1.028v-1.951h-1.275c-1.992 0-2.988.583-2.988 1.749 0 .51.17.908.51 1.195.34.287.776.43 1.31.43zm12.761-6.925h-4.385V48h-1.635v-9.51h6.02v1.345zm5.186 8.34c-1.289 0-2.338-.421-3.147-1.265-.808-.85-1.213-1.983-1.213-3.401v-.299c0-.943.179-1.784.537-2.523.363-.744.867-1.324 1.511-1.74a3.806 3.806 0 012.11-.633c1.236 0 2.197.408 2.882 1.222.686.815 1.029 1.98 1.029 3.498v.677h-6.443c.024.937.296 1.696.818 2.276.527.575 1.195.862 2.004.862.574 0 1.06-.118 1.459-.352a3.675 3.675 0 001.046-.932l.993.774c-.797 1.224-1.992 1.837-3.586 1.837zm-.202-8.525c-.657 0-1.207.24-1.653.721-.445.475-.72 1.143-.826 2.004h4.764v-.123c-.047-.826-.27-1.465-.668-1.916-.399-.457-.938-.686-1.617-.686zm13.57 8.35h-1.626v-4.06h-4.368V48h-1.635v-9.51h1.635v4.122h4.368V38.49h1.626V48zm9.686-8.191h-3.191V48h-1.626v-8.191h-3.129V38.49h7.946v1.319zm4.693 7.04a2.34 2.34 0 001.52-.528c.434-.351.674-.79.721-1.318h1.538c-.029.545-.217 1.063-.562 1.556a3.7 3.7 0 01-1.389 1.177 3.968 3.968 0 01-1.828.44c-1.295 0-2.326-.43-3.094-1.292-.762-.867-1.142-2.051-1.142-3.551v-.273c0-.925.169-1.748.509-2.47.34-.72.827-1.28 1.459-1.678.639-.398 1.392-.597 2.259-.597 1.067 0 1.951.319 2.654.958.709.638 1.087 1.467 1.134 2.487h-1.538c-.047-.615-.281-1.12-.703-1.512-.416-.398-.932-.598-1.547-.598-.826 0-1.468.3-1.925.897-.451.592-.676 1.45-.676 2.575v.308c0 1.095.225 1.94.676 2.53.451.593 1.096.889 1.934.889zm12.674-7.04h-3.191V48h-1.626v-8.191h-3.129V38.49h7.946v1.319zM168.243 48v-9.51h3.709c1.266 0 2.236.223 2.909.668.68.44 1.02 1.087 1.02 1.943 0 .439-.132.837-.396 1.195-.263.352-.653.621-1.169.809.575.134 1.035.398 1.38.79.352.393.528.862.528 1.407 0 .873-.323 1.54-.967 2.004-.639.463-1.544.694-2.716.694h-4.298zm1.626-4.175v2.865h2.69c.679 0 1.186-.125 1.52-.377.34-.253.51-.607.51-1.064 0-.95-.697-1.424-2.092-1.424h-2.628zm0-1.3h2.101c1.523 0 2.285-.446 2.285-1.337 0-.89-.721-1.35-2.162-1.38h-2.224v2.716zm8.077.632c0-.931.182-1.77.545-2.513.369-.745.879-1.319 1.53-1.723.656-.404 1.403-.606 2.241-.606 1.295 0 2.341.448 3.137 1.344.803.897 1.205 2.089 1.205 3.577v.115c0 .925-.179 1.757-.537 2.496a4 4 0 01-1.52 1.713c-.656.41-1.412.616-2.268.616-1.289 0-2.335-.449-3.137-1.345-.797-.896-1.196-2.083-1.196-3.56v-.114zm1.635.194c0 1.054.243 1.901.73 2.54.492.638 1.148.958 1.968.958.826 0 1.483-.323 1.969-.967.486-.65.73-1.559.73-2.725 0-1.043-.249-1.886-.748-2.531-.492-.65-1.148-.976-1.968-.976-.803 0-1.45.32-1.943.958-.492.64-.738 1.553-.738 2.743z" fill="#fff"/><circle cx="30" cy="30" r="29.5" stroke="#fff"/><path d="M63.208 10.536l-2.131-3.108-1.79-1.551-.017-1.27L58.421 4l-1.065 2.266-1.61-1.044-.557.567.626 1.256-9.245 8.813-14.559 7.093-4.367.967-1.027.527-2.713 3.506-1.127 3.796-.264 2.098.584 1.252.062-.457 1.04-3.785-.993 7.643-1.126 3.446L20 52.432h1.888l-.57-.95.991-5.01 3.745-7.48-.688 2.812 2.926 10.628h1.99l-.832-1.06-1.396-4.164-.59-6.253 2.145-4.94 1.284-1.254 5.952.009 1.053 1.05-1.925 14.327.077 2.285h1.894l-.699-1.05.261-5.455 2.905-9.986.357.003 6.377 16.488h1.914l-.972-.994-1.734-4.688-2.718-11.83.72-6.068-.352-1.693.331-1.191 12.371-14.046 1.885-.368 4.759 1.732.338-1.342-.48-1.408z" fill="#fff"/></svg>